<svg xmlns="http://www.w3.org/2000/svg" viewBox="0 0 11.006 11.006">
  <path id="Path_73" data-name="Path 73" d="M18.381,16.623l-3.452-3.45,3.449-3.452a1.009,1.009,0,0,0,0-1.432l-.32-.321a1,1,0,0,0-.717-.3h0a1,1,0,0,0-.716.3l-3.45,3.453L9.723,7.972a1.009,1.009,0,0,0-1.43,0l-.321.318a1.012,1.012,0,0,0,0,1.435l3.453,3.45-3.45,3.452a1.011,1.011,0,0,0,0,1.433l.32.32a1,1,0,0,0,.718.3,1.014,1.014,0,0,0,.717-.3l3.45-3.452,3.45,3.448a1.013,1.013,0,0,0,1.432,0l.32-.32a.993.993,0,0,0,.3-.717,1,1,0,0,0-.3-.718Z" transform="translate(-7.672 -7.671)"/>
</svg>
