<svg xmlns="http://www.w3.org/2000/svg" xmlns:xlink="http://www.w3.org/1999/xlink" viewBox="0 0 18 22.5" version="1.1" x="0px" y="0px">

	<g stroke="none" stroke-width="1" fill-rule="evenodd">
		<path d="M1,13 C0.447,13 0,13.447 0,14 L0,15.599 C0,16.945 1.098,18 2.5,18 L15.5,18 C16.902,18 18,16.945 18,15.599 L18,14 C18,13.447 17.552,13 17,13 C16.448,13 16,13.447 16,14 L16,15.599 C16,15.988 15.552,16 15.5,16 L2.5,16 C2.448,16 2,15.988 2,15.599 L2,14 C2,13.447 1.553,13 1,13 M9.707,13.769 L14.769,8.707 C15.16,8.316 15.16,7.684 14.769,7.293 C14.379,6.902 13.715,6.902 13.324,7.293 L10,10.586 L10,1 C10,0.447 9.552,0 9,0 C8.448,0 8,0.447 8,1 L8,10.711 L4.676,7.355 C4.285,6.965 3.668,6.965 3.277,7.355 C3.082,7.551 2.992,7.807 2.992,8.062 C2.992,8.318 3.094,8.574 3.289,8.769 L8.291,13.769 C8.682,14.16 9.316,14.16 9.707,13.769" />
	</g>
	</svg>
