<svg xmlns="http://www.w3.org/2000/svg" xmlns:xlink="http://www.w3.org/1999/xlink" version="1.1" x="0px" y="0px" viewBox="0 0 1024 1280" style="enable-background:new 0 0 1024 1024;" xml:space="preserve"><g><g><g><path d="M549.3,721c0,48,0,96.1,0,144.1c0,7.6,0.6,15.5-0.3,23c0.6-4.4,1.2-8.9,1.8-13.3c-0.4,2.3-1,4.4-1.8,6.5     c1.7-4,3.4-8,5-11.9c-1.1,2.5-2.4,4.7-4,6.9c2.6-3.4,5.2-6.7,7.8-10.1c-1.7,2.1-3.5,3.9-5.6,5.5c3.4-2.6,6.7-5.2,10.1-7.8     c-1.8,1.3-3.7,2.4-5.7,3.3c4-1.7,8-3.4,11.9-5c-2.1,0.8-4.2,1.4-6.4,1.8c4.4-0.6,8.9-1.2,13.3-1.8c-4.8,0.6-9.8,0.3-14.6,0.3     c-10.1,0-20.3,0-30.4,0c-33.8,0-67.6,0-101.4,0c-41.2,0-82.5,0-123.7,0c-35.4,0-70.8,0-106.2,0c-16.8,0-33.6,0.3-50.4,0     c-1.5,0-3.1-0.1-4.6-0.3c4.4,0.6,8.9,1.2,13.3,1.8c-2.2-0.4-4.3-1-6.4-1.8c4,1.7,8,3.4,11.9,5c-2-0.9-3.9-2-5.7-3.3     c3.4,2.6,6.7,5.2,10.1,7.8c-2.1-1.6-4-3.4-5.6-5.5c2.6,3.4,5.2,6.7,7.8,10.1c-1.6-2.2-2.9-4.4-4-6.9c1.7,4,3.4,8,5,11.9     c-0.8-2.1-1.4-4.3-1.8-6.5c0.6,4.4,1.2,8.9,1.8,13.3c-0.9-7.6-0.3-15.5-0.3-23.2c0-17.9,0-35.9,0-53.8c0-26.7,0-53.4,0-80.1     c0-32.7,0-65.4,0-98c0-35.8,0-71.7,0-107.5c0-36.2,0-72.4,0-108.6c0-33.7,0-67.4,0-101.2c0-28.4,0-56.9,0-85.3     c0-20.4,0-40.7,0-61.1c0-9.5-0.1-18.9,0-28.4c0-1.7,0.1-3.4,0.3-5.1c-0.6,4.4-1.2,8.9-1.8,13.3c0.4-2.2,1-4.3,1.8-6.4     c-1.7,4-3.4,8-5,11.9c1.1-2.4,2.4-4.6,4-6.7c-2.6,3.4-5.2,6.7-7.8,10.1c1.4-1.7,2.9-3.1,4.6-4.5c-3.4,2.6-6.7,5.2-10.1,7.8     c2.1-1.6,4.3-2.8,6.8-3.9c-4,1.7-8,3.4-11.9,5c2.1-0.8,4.2-1.3,6.4-1.7c-4.4,0.6-8.9,1.2-13.3,1.8c4.8-0.6,9.7-0.3,14.6-0.3     c10.1,0,20.3,0,30.4,0c33.8,0,67.6,0,101.4,0c41.2,0,82.5,0,123.7,0c35.4,0,70.8,0,106.2,0c16.8,0,33.6-0.3,50.4,0     c1.5,0,3.1,0.1,4.6,0.3c-4.4-0.6-8.9-1.2-13.3-1.8c2.2,0.4,4.3,0.9,6.4,1.7c-4-1.7-8-3.4-11.9-5c2.4,1,4.6,2.3,6.8,3.9     c-3.4-2.6-6.7-5.2-10.1-7.8c1.7,1.4,3.2,2.8,4.6,4.5c-2.6-3.4-5.2-6.7-7.8-10.1c1.6,2.1,2.9,4.2,4,6.7c-1.7-4-3.4-8-5-11.9     c0.8,2.1,1.4,4.2,1.8,6.4c-0.6-4.4-1.2-8.9-1.8-13.3c0.8,6.3,0.3,12.9,0.3,19.2c0,12.8,0,25.7,0,38.5c0,29.8,0,59.7,0,89.5     c0,7,0,14,0,20.9c0,12.8,5.6,26.3,14.6,35.4c8.7,8.7,22.9,15.2,35.4,14.6c12.9-0.6,26.3-4.8,35.4-14.6c9-9.8,14.6-21.8,14.6-35.4     c0-35.6,0-71.1,0-106.7c0-17.7,0-35.3,0-53c0-15.2-2.7-30.3-10.7-43.6c-14.3-24-40-37.8-67.7-38.3c-22.1-0.4-44.2,0-66.3,0     c-45,0-89.9,0-134.9,0c-46.4,0-92.8,0-139.2,0c-26.4,0-52.9,0-79.3,0c-7.5,0-15.1,0.8-22.4,2.4c-19.5,4.2-35.4,17.7-46.5,33.7     c-8.2,11.9-11.8,27.1-12.1,41.4c-0.1,3.5,0,6.9,0,10.4c0,22.9,0,45.9,0,68.8c0,38.5,0,77,0,115.5c0,47.1,0,94.3,0,141.4     c0,48.8,0,97.6,0,146.4c0,43.6,0,87.1,0,130.7c0,31.4,0,62.7,0,94.1c0,12.2-0.3,24.5,0,36.7c0.7,34.9,24.9,69.6,60.6,76.4     c7.1,1.4,13.7,2.1,20.7,2.1c9.6,0,19.1,0,28.7,0c39.3,0,78.6,0,117.9,0c48.3,0,96.7,0,145,0c36,0,71.9,0,107.9,0     c6.6,0,13.3,0.1,19.9,0c27.4-0.5,55.4-15.2,68.3-40.2c7.1-13.7,10-28,10-43.2c0-41.5,0-83,0-124.5c0-11.2,0-22.4,0-33.5     c0-12.8-5.6-26.3-14.6-35.4c-8.7-8.7-22.9-15.2-35.4-14.6c-12.9,0.6-26.3,4.8-35.4,14.6C554.9,695.4,549.3,707.5,549.3,721     L549.3,721z"/></g></g><g><g><path d="M319.8,562.5c19.4,0,38.7,0,58.1,0c46.5,0,93,0,139.5,0c56.2,0,112.5,0,168.7,0c48.6,0,97.2,0,145.9,0     c23.6,0,47.3,0.3,70.9,0c0.3,0,0.7,0,1,0c12.8,0,26.3-5.6,35.4-14.6c8.7-8.7,15.2-22.9,14.6-35.4c-0.6-12.9-4.8-26.3-14.6-35.4     c-9.8-9-21.8-14.6-35.4-14.6c-19.4,0-38.7,0-58.1,0c-46.5,0-93,0-139.5,0c-56.2,0-112.5,0-168.7,0c-48.6,0-97.2,0-145.9,0     c-23.6,0-47.3-0.3-70.9,0c-0.3,0-0.7,0-1,0c-12.8,0-26.3,5.6-35.4,14.6c-8.7,8.7-15.2,22.9-14.6,35.4     c0.6,12.9,4.8,26.3,14.6,35.4C294.2,556.8,306.2,562.5,319.8,562.5L319.8,562.5z"/></g></g><g><g><path d="M725.3,403.8c16.1,16.1,32.2,32.2,48.3,48.3c25.7,25.7,51.3,51.3,77,77c5.9,5.9,11.9,11.9,17.8,17.8     c0-23.6,0-47.1,0-70.7c-16.1,16.1-32.2,32.2-48.3,48.3c-25.7,25.7-51.3,51.3-77,77c-5.9,5.9-11.9,11.9-17.8,17.8     c-9.1,9.1-14.6,22.5-14.6,35.4c0,12.3,5.4,26.9,14.6,35.4c9.5,8.7,22,15.2,35.4,14.6c13.3-0.6,25.8-5.1,35.4-14.6     c16.1-16.1,32.2-32.2,48.3-48.3c25.7-25.7,51.3-51.3,77-77c5.9-5.9,11.9-11.9,17.8-17.8c19.1-19.1,19.1-51.6,0-70.7     c-16.1-16.1-32.2-32.2-48.3-48.3c-25.7-25.7-51.3-51.3-77-77c-5.9-5.9-11.9-11.9-17.8-17.8c-9.1-9.1-22.5-14.6-35.4-14.6     c-12.3,0-26.9,5.4-35.4,14.6c-8.7,9.5-15.2,22-14.6,35.4C711.3,381.7,715.8,394.2,725.3,403.8L725.3,403.8z"/></g></g></g></svg>
