<svg xmlns="http://www.w3.org/2000/svg" viewBox="0 0 14.734 14.734">
  <path id="Path_72" data-name="Path 72" d="M21.435,997.362a.735.735,0,0,0-.7.53l-.368,1.278c-.173.063-.342.141-.506.219l-1.163-.645a.758.758,0,0,0-.886.115l-1.3,1.312a.758.758,0,0,0-.127.875l.645,1.151c-.082.172-.153.348-.219.53l-1.278.357a.758.758,0,0,0-.53.714v1.853a.757.757,0,0,0,.53.714l1.278.368c.064.177.139.35.219.518l-.645,1.151a.758.758,0,0,0,.127.875l1.3,1.312a.758.758,0,0,0,.886.127l1.151-.645c.171.081.349.153.53.219l.357,1.266a.758.758,0,0,0,.7.541H23.3a.758.758,0,0,0,.7-.541l.357-1.266c.18-.065.358-.137.53-.219l1.151.645a.758.758,0,0,0,.886-.127l1.3-1.312a.758.758,0,0,0,.127-.875l-.645-1.151c.08-.168.154-.341.219-.518l1.278-.368a.758.758,0,0,0,.53-.714V1003.8a.757.757,0,0,0-.53-.714l-1.278-.357c-.066-.182-.136-.357-.219-.53l.645-1.151a.758.758,0,0,0-.127-.875l-1.3-1.312a.759.759,0,0,0-.886-.115l-1.163.645c-.165-.078-.333-.156-.506-.219L24,997.892a.758.758,0,0,0-.7-.53ZM22,998.835h.737l.311,1.071a.751.751,0,0,0,.506.506,4.51,4.51,0,0,1,1.025.426.75.75,0,0,0,.714,0l.978-.541.53.518-.553.978a.752.752,0,0,0,.011.725,4.421,4.421,0,0,1,.426,1.013.751.751,0,0,0,.506.518l1.071.311v.737l-1.071.3a.751.751,0,0,0-.506.518,4.418,4.418,0,0,1-.426,1.013.751.751,0,0,0-.011.725l.553.979-.53.518-.978-.541a.751.751,0,0,0-.714,0,4.509,4.509,0,0,1-1.025.426.751.751,0,0,0-.506.506l-.311,1.082H22l-.311-1.082a.751.751,0,0,0-.506-.506,4.508,4.508,0,0,1-1.024-.426.751.751,0,0,0-.714,0l-.978.541-.53-.518.553-.979a.752.752,0,0,0-.011-.725,4.42,4.42,0,0,1-.426-1.013.751.751,0,0,0-.506-.518l-1.071-.3v-.737l1.071-.311a.751.751,0,0,0,.506-.518,4.421,4.421,0,0,1,.426-1.013.751.751,0,0,0,.011-.725l-.553-.978.53-.518.978.541a.75.75,0,0,0,.714,0,4.51,4.51,0,0,1,1.024-.426.751.751,0,0,0,.506-.506L22,998.835Zm.368,2.947a2.947,2.947,0,1,0,2.947,2.947A2.958,2.958,0,0,0,22.367,1001.782Zm0,1.473a1.473,1.473,0,1,1-1.473,1.473A1.462,1.462,0,0,1,22.367,1003.256Z" transform="translate(-15 -997.362)"/>
</svg>
