<svg xmlns="http://www.w3.org/2000/svg" xmlns:xlink="http://www.w3.org/1999/xlink" version="1.1" x="0px" y="0px" viewBox="0 0 100 100"  xml:space="preserve">
<g>
<path d="M93.593,86.816L77.045,70.268c5.413-6.873,8.642-15.526,8.642-24.914C85.687,23.104,67.593,5,45.343,5S5,23.104,5,45.354   c0,22.239,18.094,40.343,40.343,40.343c9.399,0,18.062-3.239,24.924-8.653l16.549,16.559C87.754,94.531,88.979,95,90.205,95   c1.225,0,2.451-0.469,3.389-1.396C95.469,91.729,95.469,88.692,93.593,86.816z M45.343,76.107   c-16.954,0-30.753-13.799-30.753-30.753c0-16.964,13.799-30.764,30.753-30.764c16.964,0,30.753,13.799,30.753,30.764   C76.096,62.308,62.308,76.107,45.343,76.107z"/>
</g>
<g>
<path d="M63.032,45.354c0,2.344-1.907,4.262-4.262,4.262h-9.164v9.164c0,2.344-1.907,4.262-4.262,4.262   c-2.355,0-4.262-1.918-4.262-4.262v-9.164h-9.164c-2.355,0-4.262-1.918-4.262-4.262c0-2.355,1.907-4.262,4.262-4.262h9.164v-9.175   c0-2.344,1.907-4.262,4.262-4.262c2.355,0,4.262,1.918,4.262,4.262v9.175h9.164C61.125,41.092,63.032,42.999,63.032,45.354z"/>
</g></svg>
