<?xml version="1.0" standalone="no"?>
<!DOCTYPE svg PUBLIC "-//W3C//DTD SVG 20010904//EN"
 "http://www.w3.org/TR/2001/REC-SVG-20010904/DTD/svg10.dtd">
<svg version="1.0" xmlns="http://www.w3.org/2000/svg"
 width="500.000000pt" height="500.000000pt" viewBox="0 0 500.000000 500.000000"
 preserveAspectRatio="xMidYMid meet">
<metadata>
Created by potrace 1.11, written by Peter Selinger 2001-2013
</metadata>
<g transform="translate(0.000000,500.000000) scale(0.100000,-0.100000)"
fill="#000000" stroke="none">
<path d="M2189 4367 c-360 -209 -821 -475 -870 -502 -20 -11 -158 -90 -307
-175 l-271 -155 -1 -1035 0 -1035 293 -170 c299 -173 726 -419 1199 -691 147
-85 270 -154 273 -154 3 0 108 59 233 131 124 72 260 150 302 174 70 39 581
334 1032 595 l198 115 -3 1034 -2 1034 -390 225 c-214 124 -496 286 -625 360
-129 74 -345 198 -479 275 -134 77 -253 142 -265 143 -13 2 -138 -65 -317
-169z m423 -178 c59 -33 110 -64 112 -68 3 -4 -84 -57 -192 -118 -108 -60
-419 -234 -689 -387 -271 -152 -496 -276 -500 -276 -13 1 -206 115 -207 123
-1 7 1341 785 1358 786 5 1 58 -26 118 -60z m594 -337 c466 -264 673 -385 669
-392 -6 -9 -200 -120 -210 -120 -23 0 -821 467 -863 505 -11 10 5 23 85 69 54
31 101 56 104 56 4 0 100 -53 215 -118z m-836 -366 l0 -133 -422 -243 c-233
-134 -433 -250 -445 -258 l-23 -14 0 145 0 145 438 245 c240 135 440 246 445
246 4 1 7 -59 7 -133z m532 -9 c123 -68 314 -175 425 -238 l203 -114 0 -143 0
-144 -32 20 c-18 11 -157 91 -308 177 -151 87 -335 194 -407 237 l-133 79 0
130 c0 111 2 130 15 126 8 -4 115 -62 237 -130z m-1782 -316 l85 -48 3 -118
c1 -64 -1 -115 -6 -113 -4 1 -47 25 -95 52 l-87 50 0 113 c0 62 3 113 8 112 4
0 45 -22 92 -48z m2870 -63 l0 -113 -87 -50 c-47 -27 -90 -52 -95 -53 -5 -2
-7 49 -6 114 l3 118 85 48 c47 26 88 47 93 48 4 0 7 -51 7 -112z m-1182 -133
l242 -139 0 -331 -1 -330 -261 -150 c-144 -82 -272 -150 -284 -150 -12 0 -139
68 -283 150 l-261 150 0 331 0 330 272 157 272 157 30 -18 c17 -10 140 -80
274 -157z m-1685 -360 l87 -50 0 -177 c0 -98 -2 -178 -5 -178 -3 0 -46 24 -95
52 l-90 53 0 178 c0 98 3 177 8 175 4 -1 47 -25 95 -53z m557 -122 l0 -178
-38 -21 c-20 -11 -63 -35 -94 -53 l-58 -33 0 179 0 178 88 52 c48 29 90 52 95
52 4 1 7 -79 7 -176z m1753 123 l87 -50 0 -178 c0 -98 -3 -178 -6 -178 -3 0
-46 23 -95 52 l-89 52 0 179 c0 98 4 177 8 175 4 -1 47 -25 95 -52z m557 -125
l0 -179 -90 -51 c-49 -28 -92 -51 -95 -51 -3 0 -5 80 -5 178 l0 177 88 51 c48
29 90 52 95 53 4 1 7 -79 7 -178z m-1764 -765 l495 -284 -106 -56 c-59 -32
-113 -56 -120 -54 -21 5 -984 552 -985 559 0 9 192 119 208 119 7 0 236 -128
508 -284z m1175 228 c54 -31 99 -59 99 -63 0 -3 -117 -72 -259 -152 l-260
-146 -99 56 c-55 31 -100 60 -102 65 -2 10 487 295 508 295 8 1 59 -24 113
-55z m-2219 -53 l28 -16 0 -177 c0 -98 -3 -178 -6 -178 -3 0 -46 23 -95 52
l-89 52 0 179 0 179 67 -38 c36 -20 79 -44 95 -53z m2808 -90 l0 -179 -89 -51
c-48 -28 -91 -51 -95 -51 -3 0 -6 80 -6 178 l0 177 88 51 c48 29 90 52 95 53
4 1 7 -80 7 -178z m-2145 -433 c149 -85 293 -167 320 -182 28 -16 83 -46 123
-69 l72 -41 0 -114 0 -114 -32 20 c-18 11 -118 69 -223 129 -104 60 -286 165
-402 233 l-213 123 0 109 0 109 43 -25 c23 -13 164 -94 312 -178z m1675 89 l0
-103 -199 -117 c-109 -64 -201 -117 -205 -117 -3 0 -6 49 -6 109 l0 109 148
83 c81 45 170 95 197 110 28 16 53 29 58 29 4 0 7 -46 7 -103z m-692 -393 l-3
-106 -92 -54 -93 -53 0 112 0 112 88 47 c48 26 91 47 95 48 4 0 6 -48 5 -106z"/>
<path d="M2352 2787 l-162 -92 -2 -162 c-1 -90 -2 -175 -2 -189 -1 -24 15 -36
161 -120 l163 -93 157 92 c87 50 161 96 165 101 5 6 7 92 5 191 l-2 180 -120
68 c-66 38 -138 79 -161 92 l-40 24 -162 -92z m270 -71 c37 -21 70 -41 72 -45
3 -4 -38 -30 -89 -59 l-94 -52 -96 53 -96 54 98 56 c86 50 100 55 118 43 11
-7 50 -30 87 -50z m-219 -198 l67 -39 0 -109 c0 -61 -2 -110 -4 -110 -3 0 -48
25 -100 56 l-96 56 0 109 0 110 33 -17 c17 -9 62 -34 100 -56z m347 -37 l0
-109 -90 -51 c-49 -28 -94 -51 -100 -51 -6 0 -10 41 -10 104 l0 105 98 55 c53
31 98 56 100 56 1 0 2 -49 2 -109z"/>
</g>
</svg>
